# xmcd
#
# Track frame offsets: 
#        150
#        14115
#        33075
#        52867
#        69189
#        82846
#        104414
#        119425
#        138257
#        150444
#        172292
#        190301
#        205953
#        222596
#        236716
#
# Disc length: 3352 seconds
#
# Revision: 0
# Processed by: cddbd v1.5.2PL0 Copyright (c) Steve Scherf et al.
# Submitted via: ExactAudioCopy v1.0b1
#
DISCID=d00d160f
DTITLE=Année 80 - Année 80 compil CD 3
DYEAR=2010
DGENRE=Country
TTITLE0=Lio - Les brunes comptent pas pour des prunes
TTITLE1=Félix Gray et disier barbelivien - A toutes les filles
TTITLE2=David et Jonathan - Est-ce que tu viens pour les vacances ?
TTITLE3=Righeira - Vamos  a la playa
TTITLE4=Ricchi and Poveri - sara perche ti amo
TTITLE5=Julie Pietri - Eve lève toi
TTITLE6=Capitane sensible - Wot
TTITLE7=Bandolero - Paris latino
TTITLE8=Jesse Garon - C'est lundi
TTITLE9=Gérard Berliner - Louise
TTITLE10=Century - Lover why
TTITLE11=Laroche Valmont - T'as le look Coco
TTITLE12=Boys town gang - Can't take my eyes off you
TTITLE13=Demis Roussos - Quand je t'aime
TTITLE14=Tina Charles - I love to love
EXTD=
EXTT0=
EXTT1=
EXTT2=
EXTT3=
EXTT4=
EXTT5=
EXTT6=
EXTT7=
EXTT8=
EXTT9=
EXTT10=
EXTT11=
EXTT12=
EXTT13=
EXTT14=
PLAYORDER=
